<svg xmlns="http://www.w3.org/2000/svg" xmlns:xlink="http://www.w3.org/1999/xlink" width="5000" zoomAndPan="magnify" viewBox="0 0 3750 2250.000011" height="3000" preserveAspectRatio="xMidYMid meet" version="1.0"><defs><g/><clipPath id="601487633d"><rect x="0" width="1977" y="0" height="990"/></clipPath><clipPath id="f6fddfde7b"><rect x="0" width="2512" y="0" height="1374"/></clipPath></defs><g transform="matrix(1, 0, 0, 1, 28, 282)"><g clip-path="url(#601487633d)"><g fill="#000000" fill-opacity="1"><g transform="translate(0.550042, 753.293153)"><g><path d="M 196.78125 9.125 C 151.695312 9.125 114.210938 -2.269531 84.328125 -25.0625 C 54.453125 -47.863281 36.976562 -78.765625 31.90625 -117.765625 L 97.25 -117.765625 C 101.300781 -98.015625 111.8125 -80.921875 128.78125 -66.484375 C 145.75 -52.046875 168.671875 -44.828125 197.546875 -44.828125 C 224.390625 -44.828125 244.140625 -50.523438 256.796875 -61.921875 C 269.460938 -73.316406 275.796875 -86.867188 275.796875 -102.578125 C 275.796875 -125.367188 267.566406 -140.5625 251.109375 -148.15625 C 234.648438 -155.75 211.476562 -162.585938 181.59375 -168.671875 C 161.332031 -172.722656 141.066406 -178.546875 120.796875 -186.140625 C 100.535156 -193.742188 83.566406 -204.507812 69.890625 -218.4375 C 56.222656 -232.363281 49.390625 -250.722656 49.390625 -273.515625 C 49.390625 -306.441406 61.671875 -333.414062 86.234375 -354.4375 C 110.796875 -375.457031 144.097656 -385.96875 186.140625 -385.96875 C 226.160156 -385.96875 258.957031 -375.960938 284.53125 -355.953125 C 310.113281 -335.953125 324.929688 -307.460938 328.984375 -270.484375 L 265.921875 -270.484375 C 263.390625 -289.734375 255.160156 -304.800781 241.234375 -315.6875 C 227.304688 -326.582031 208.691406 -332.03125 185.390625 -332.03125 C 162.597656 -332.03125 144.992188 -327.21875 132.578125 -317.59375 C 120.171875 -307.96875 113.96875 -295.300781 113.96875 -279.59375 C 113.96875 -264.40625 121.941406 -252.503906 137.890625 -243.890625 C 153.847656 -235.273438 175.503906 -227.929688 202.859375 -221.859375 C 226.160156 -216.796875 248.320312 -210.585938 269.34375 -203.234375 C 290.363281 -195.890625 307.582031 -185 321 -170.5625 C 334.425781 -156.132812 341.140625 -135.242188 341.140625 -107.890625 C 341.648438 -73.953125 328.859375 -45.960938 302.765625 -23.921875 C 276.679688 -1.890625 241.351562 9.125 196.78125 9.125 Z M 196.78125 9.125 "/></g></g></g><g fill="#000000" fill-opacity="1"><g transform="translate(317.379744, 753.293153)"><g><path d="M 91.171875 -460.421875 C 78.503906 -460.421875 67.992188 -464.597656 59.640625 -472.953125 C 51.285156 -481.316406 47.109375 -491.832031 47.109375 -504.5 C 47.109375 -516.644531 51.285156 -526.769531 59.640625 -534.875 C 67.992188 -542.976562 78.503906 -547.03125 91.171875 -547.03125 C 103.328125 -547.03125 113.707031 -542.976562 122.3125 -534.875 C 130.925781 -526.769531 135.234375 -516.644531 135.234375 -504.5 C 135.234375 -491.832031 130.925781 -481.316406 122.3125 -472.953125 C 113.707031 -464.597656 103.328125 -460.421875 91.171875 -460.421875 Z M 59.265625 0 L 59.265625 -376.84375 L 123.078125 -376.84375 L 123.078125 0 Z M 59.265625 0 "/></g></g></g><g fill="#000000" fill-opacity="1"><g transform="translate(435.905709, 753.293153)"><g><path d="M 52.421875 0 L 52.421875 -376.84375 L 110.171875 -376.84375 L 114.734375 -322.140625 C 126.890625 -342.398438 143.097656 -358.101562 163.359375 -369.25 C 183.617188 -380.394531 206.410156 -385.96875 231.734375 -385.96875 C 261.617188 -385.96875 287.320312 -379.890625 308.84375 -367.734375 C 330.375 -355.578125 346.960938 -337.085938 358.609375 -312.265625 C 371.785156 -335.054688 389.894531 -353.035156 412.9375 -366.203125 C 435.988281 -379.378906 460.9375 -385.96875 487.78125 -385.96875 C 532.851562 -385.96875 568.8125 -372.414062 595.65625 -345.3125 C 622.5 -318.21875 635.921875 -276.5625 635.921875 -220.34375 L 635.921875 0 L 572.859375 0 L 572.859375 -213.5 C 572.859375 -252.5 565.003906 -281.875 549.296875 -301.625 C 533.597656 -321.382812 511.066406 -331.265625 481.703125 -331.265625 C 451.304688 -331.265625 426.101562 -319.488281 406.09375 -295.9375 C 386.09375 -272.382812 376.09375 -238.828125 376.09375 -195.265625 L 376.09375 0 L 312.265625 0 L 312.265625 -213.5 C 312.265625 -252.5 304.410156 -281.875 288.703125 -301.625 C 273.003906 -321.382812 250.46875 -331.265625 221.09375 -331.265625 C 191.207031 -331.265625 166.257812 -319.488281 146.25 -295.9375 C 126.25 -272.382812 116.25 -238.828125 116.25 -195.265625 L 116.25 0 Z M 52.421875 0 "/></g></g></g><g fill="#000000" fill-opacity="1"><g transform="translate(1052.850447, 753.293153)"><g><path d="M 52.421875 167.15625 L 52.421875 -376.84375 L 110.171875 -376.84375 L 116.25 -314.546875 C 128.40625 -332.785156 145.753906 -349.25 168.296875 -363.9375 C 190.835938 -378.625 219.582031 -385.96875 254.53125 -385.96875 C 292.007812 -385.96875 324.675781 -377.351562 352.53125 -360.125 C 380.394531 -342.90625 402.050781 -319.351562 417.5 -289.46875 C 432.945312 -259.59375 440.671875 -225.660156 440.671875 -187.671875 C 440.671875 -149.679688 432.945312 -115.867188 417.5 -86.234375 C 402.050781 -56.597656 380.269531 -33.296875 352.15625 -16.328125 C 324.039062 0.640625 291.242188 9.125 253.765625 9.125 C 222.867188 9.125 195.390625 2.789062 171.328125 -9.875 C 147.265625 -22.539062 128.90625 -40.269531 116.25 -63.0625 L 116.25 167.15625 Z M 246.921875 -46.34375 C 272.253906 -46.34375 294.539062 -52.296875 313.78125 -64.203125 C 333.03125 -76.109375 348.226562 -92.695312 359.375 -113.96875 C 370.519531 -135.238281 376.09375 -160.054688 376.09375 -188.421875 C 376.09375 -216.785156 370.519531 -241.601562 359.375 -262.875 C 348.226562 -284.15625 333.03125 -300.742188 313.78125 -312.640625 C 294.539062 -324.546875 272.253906 -330.5 246.921875 -330.5 C 221.597656 -330.5 199.3125 -324.546875 180.0625 -312.640625 C 160.820312 -300.742188 145.628906 -284.15625 134.484375 -262.875 C 123.335938 -241.601562 117.765625 -216.785156 117.765625 -188.421875 C 117.765625 -160.054688 123.335938 -135.238281 134.484375 -113.96875 C 145.628906 -92.695312 160.820312 -76.109375 180.0625 -64.203125 C 199.3125 -52.296875 221.597656 -46.34375 246.921875 -46.34375 Z M 246.921875 -46.34375 "/></g></g></g><g fill="#000000" fill-opacity="1"><g transform="translate(1466.932547, 753.293153)"><g><path d="M 52.421875 0 L 52.421875 -547.03125 L 116.25 -547.03125 L 116.25 0 Z M 52.421875 0 "/></g></g></g><g fill="#000000" fill-opacity="1"><g transform="translate(1572.54219, 753.293153)"><g><path d="M 221.859375 9.125 C 185.890625 9.125 153.972656 0.894531 126.109375 -15.5625 C 98.253906 -32.03125 76.347656 -54.953125 60.390625 -84.328125 C 44.441406 -113.710938 36.46875 -148.410156 36.46875 -188.421875 C 36.46875 -227.929688 44.316406 -262.5 60.015625 -292.125 C 75.722656 -321.757812 97.628906 -344.804688 125.734375 -361.265625 C 153.847656 -377.734375 186.394531 -385.96875 223.375 -385.96875 C 259.84375 -385.96875 291.375 -377.734375 317.96875 -361.265625 C 344.5625 -344.804688 364.945312 -323.15625 379.125 -296.3125 C 393.3125 -269.46875 400.40625 -240.597656 400.40625 -209.703125 C 400.40625 -204.128906 400.273438 -198.554688 400.015625 -192.984375 C 399.765625 -187.410156 399.640625 -181.078125 399.640625 -173.984375 L 99.53125 -173.984375 C 101.050781 -145.117188 107.757812 -121.1875 119.65625 -102.1875 C 131.5625 -83.195312 146.503906 -68.890625 164.484375 -59.265625 C 182.472656 -49.640625 201.597656 -44.828125 221.859375 -44.828125 C 248.191406 -44.828125 270.222656 -50.90625 287.953125 -63.0625 C 305.679688 -75.21875 318.597656 -91.679688 326.703125 -112.453125 L 389.765625 -112.453125 C 379.640625 -77.492188 360.265625 -48.488281 331.640625 -25.4375 C 303.023438 -2.394531 266.429688 9.125 221.859375 9.125 Z M 221.859375 -332.03125 C 191.460938 -332.03125 164.488281 -322.785156 140.9375 -304.296875 C 117.382812 -285.804688 103.835938 -258.832031 100.296875 -223.375 L 337.34375 -223.375 C 335.820312 -257.3125 324.171875 -283.90625 302.390625 -303.15625 C 280.609375 -322.40625 253.765625 -332.03125 221.859375 -332.03125 Z M 221.859375 -332.03125 "/></g></g></g></g></g><g transform="matrix(1, 0, 0, 1, 1209, 576)"><g clip-path="url(#f6fddfde7b)"><g fill="#0872cc" fill-opacity="1"><g transform="translate(56.197647, 865.454935)"><g><path d="M 328.25 -218.546875 C 333.519531 -212.691406 334.109375 -206.546875 330.015625 -200.109375 C 325.910156 -194.253906 321.664062 -188.691406 317.28125 -183.421875 C 312.894531 -178.160156 308.65625 -173.191406 304.5625 -168.515625 C 295.78125 -159.734375 286.707031 -151.097656 277.34375 -142.609375 C 267.988281 -134.128906 255.703125 -129.890625 240.484375 -129.890625 C 229.953125 -130.484375 221.175781 -134.4375 214.15625 -141.75 C 207.132812 -149.0625 201.722656 -157.691406 197.921875 -167.640625 C 194.117188 -177.585938 191.335938 -186.363281 189.578125 -193.96875 C 186.648438 -205.082031 183.867188 -215.757812 181.234375 -226 C 178.609375 -236.238281 175.832031 -246.332031 172.90625 -256.28125 C 171.144531 -253.945312 169.679688 -251.898438 168.515625 -250.140625 C 151.546875 -226.734375 133.40625 -199.378906 114.09375 -168.078125 C 94.789062 -136.773438 75.773438 -105.175781 57.046875 -73.28125 C 38.328125 -41.394531 21.359375 -12.875 6.140625 12.28125 C 0.878906 22.820312 -6.578125 28.09375 -16.234375 28.09375 C -25.890625 28.09375 -33.640625 24.578125 -39.484375 17.546875 C -45.335938 10.523438 -45.925781 1.75 -41.25 -8.78125 C -40.664062 -9.363281 -40.375 -9.945312 -40.375 -10.53125 C -40.375 -11.113281 -40.082031 -11.695312 -39.5 -12.28125 C -39.5 -12.875 -39.203125 -13.609375 -38.609375 -14.484375 C -38.023438 -15.359375 -37.441406 -16.378906 -36.859375 -17.546875 C -19.304688 -53.242188 -2.925781 -89.226562 12.28125 -125.5 C 27.5 -161.78125 42.128906 -198.351562 56.171875 -235.21875 C 60.847656 -248.09375 65.523438 -260.960938 70.203125 -273.828125 C 74.890625 -286.703125 79.28125 -299.867188 83.375 -313.328125 C 84.550781 -316.835938 86.894531 -319.617188 90.40625 -321.671875 C 93.914062 -323.722656 97.71875 -323.867188 101.8125 -322.109375 C 105.90625 -320.941406 108.828125 -318.457031 110.578125 -314.65625 C 112.335938 -310.851562 112.34375 -306.898438 110.59375 -302.796875 C 105.90625 -291.097656 101.222656 -279.25 96.546875 -267.25 C 91.867188 -255.257812 87.1875 -243.410156 82.5 -231.703125 C 88.9375 -241.066406 95.375 -250.28125 101.8125 -259.34375 C 108.25 -268.414062 114.976562 -277.34375 122 -286.125 C 127.851562 -293.144531 133.554688 -299.726562 139.109375 -305.875 C 144.671875 -312.019531 151.546875 -317.722656 159.734375 -322.984375 C 167.347656 -327.671875 175.976562 -329.28125 185.625 -327.8125 C 195.28125 -326.351562 202.742188 -321.820312 208.015625 -314.21875 C 217.960938 -297.832031 224.691406 -279.691406 228.203125 -259.796875 C 231.710938 -239.898438 234.929688 -221.46875 237.859375 -204.5 C 239.023438 -198.0625 240.335938 -192.0625 241.796875 -186.5 C 243.265625 -180.945312 244.875 -176.707031 246.625 -173.78125 C 247.800781 -173.78125 249.265625 -174.070312 251.015625 -174.65625 C 260.960938 -179.34375 270.765625 -186.070312 280.421875 -194.84375 C 290.078125 -203.625 299 -211.816406 307.1875 -219.421875 C 310.113281 -222.347656 313.625 -223.664062 317.71875 -223.375 C 321.8125 -223.082031 325.320312 -221.472656 328.25 -218.546875 Z M 244 -173.78125 C 243.414062 -173.195312 244 -173.195312 245.75 -173.78125 C 245.164062 -173.78125 244.582031 -173.78125 244 -173.78125 Z M 244 -173.78125 "/></g></g></g><g fill="#0872cc" fill-opacity="1"><g transform="translate(388.838503, 865.454935)"><g><path d="M 442.359375 -219.421875 C 446.453125 -224.097656 450.984375 -225.707031 455.953125 -224.25 C 460.929688 -222.789062 464.734375 -219.71875 467.359375 -215.03125 C 469.992188 -210.351562 469.265625 -205.671875 465.171875 -200.984375 C 432.410156 -161.785156 398.765625 -123.171875 364.234375 -85.140625 C 329.710938 -47.109375 290.804688 -13.753906 247.515625 14.921875 C 241.078125 19.015625 233.03125 22.671875 223.375 25.890625 C 213.71875 29.109375 204.0625 30.570312 194.40625 30.28125 C 184.75 29.988281 176.410156 25.742188 169.390625 17.546875 C 159.441406 5.847656 154.46875 -10.09375 154.46875 -30.28125 C 154.46875 -50.46875 157.832031 -72.554688 164.5625 -96.546875 C 171.289062 -120.535156 179.628906 -144.523438 189.578125 -168.515625 C 177.878906 -152.710938 166.320312 -136.910156 154.90625 -121.109375 C 143.5 -105.316406 131.945312 -89.519531 120.25 -73.71875 C 106.789062 -55.582031 92.015625 -38.03125 75.921875 -21.0625 C 59.828125 -4.09375 40.078125 7.609375 16.671875 14.046875 C 1.460938 17.554688 -12.28125 14.628906 -24.5625 5.265625 C -36.851562 -4.097656 -43.296875 -16.675781 -43.890625 -32.46875 C -44.472656 -44.757812 -43.445312 -55.878906 -40.8125 -65.828125 C -38.175781 -75.773438 -34.8125 -86.015625 -30.71875 -96.546875 C -26.039062 -108.242188 -18.140625 -124.039062 -7.015625 -143.9375 C 4.097656 -163.832031 17.40625 -184.75 32.90625 -206.6875 C 48.414062 -228.632812 65.09375 -248.96875 82.9375 -267.6875 C 100.78125 -286.414062 118.914062 -300.898438 137.34375 -311.140625 C 155.78125 -321.378906 173.335938 -325.035156 190.015625 -322.109375 C 206.691406 -319.179688 221.46875 -306.601562 234.34375 -284.375 C 237.851562 -287.882812 241.070312 -291.25 244 -294.46875 C 246.925781 -297.6875 250.144531 -301.050781 253.65625 -304.5625 C 258.914062 -311 265.203125 -311.726562 272.515625 -306.75 C 279.835938 -301.78125 281.445312 -295.488281 277.34375 -287.875 C 263.882812 -262.71875 251.304688 -237.117188 239.609375 -211.078125 C 227.910156 -185.046875 217.085938 -158.863281 207.140625 -132.53125 C 193.679688 -92.738281 185.925781 -62.457031 183.875 -41.6875 C 181.820312 -20.914062 184.304688 -7.894531 191.328125 -2.625 C 198.359375 2.632812 208.75 1.898438 222.5 -4.828125 C 236.25 -11.554688 252.191406 -22.523438 270.328125 -37.734375 C 288.460938 -52.953125 307.769531 -70.800781 328.25 -91.28125 C 348.144531 -111.175781 367.597656 -131.945312 386.609375 -153.59375 C 405.628906 -175.238281 424.210938 -197.179688 442.359375 -219.421875 Z M 113.21875 -145.703125 C 128.4375 -164.421875 144.085938 -183.140625 160.171875 -201.859375 C 176.265625 -220.585938 192.796875 -239.019531 209.765625 -257.15625 C 204.503906 -266.519531 198.359375 -272.957031 191.328125 -276.46875 C 184.304688 -279.976562 175.828125 -277.929688 165.890625 -270.328125 C 153.597656 -262.140625 142.039062 -251.898438 131.21875 -239.609375 C 120.394531 -227.316406 110.300781 -214.738281 100.9375 -201.875 C 84.550781 -179.050781 68.3125 -155.347656 52.21875 -130.765625 C 36.132812 -106.191406 23.992188 -80.445312 15.796875 -53.53125 C 14.628906 -50.019531 13.753906 -46.804688 13.171875 -43.890625 C 26.035156 -49.734375 38.171875 -58.503906 49.578125 -70.203125 C 60.992188 -81.910156 72.113281 -94.640625 82.9375 -108.390625 C 93.757812 -122.140625 103.851562 -134.578125 113.21875 -145.703125 Z M 113.21875 -145.703125 "/></g></g></g><g fill="#0872cc" fill-opacity="1"><g transform="translate(778.528527, 865.454935)"><g><path d="M 454.640625 -224.6875 C 458.148438 -225.851562 461.804688 -225.707031 465.609375 -224.25 C 469.410156 -222.789062 471.898438 -220.007812 473.078125 -215.90625 C 474.828125 -212.394531 474.820312 -208.738281 473.0625 -204.9375 C 471.3125 -201.132812 468.390625 -198.359375 464.296875 -196.609375 C 442.054688 -188.992188 420.113281 -180.941406 398.46875 -172.453125 C 376.820312 -163.972656 355.171875 -155.054688 333.515625 -145.703125 C 322.398438 -115.273438 308.503906 -84.257812 291.828125 -52.65625 C 275.148438 -21.0625 256.570312 9.066406 236.09375 37.734375 C 215.613281 66.410156 194.695312 92.007812 173.34375 114.53125 C 151.988281 137.0625 131.363281 155.054688 111.46875 168.515625 C 100.351562 176.117188 87.769531 182.257812 73.71875 186.9375 C 59.675781 191.625 45.488281 193.378906 31.15625 192.203125 C 16.820312 191.035156 4.097656 185.1875 -7.015625 174.65625 C -23.984375 160.03125 -33.929688 141.742188 -36.859375 119.796875 C -39.785156 97.859375 -35.101562 77.53125 -22.8125 58.8125 C -12.875 41.84375 -0.882812 26.773438 13.15625 13.609375 C 27.207031 0.441406 41.835938 -12.285156 57.046875 -24.578125 C 86.890625 -46.804688 118.191406 -66.988281 150.953125 -85.125 C 183.722656 -103.269531 216.785156 -120.535156 250.140625 -136.921875 C 258.921875 -141.015625 267.84375 -145.253906 276.90625 -149.640625 C 285.976562 -154.035156 294.90625 -158.28125 303.6875 -162.375 C 308.945312 -178.164062 313.332031 -194.835938 316.84375 -212.390625 C 320.351562 -229.953125 321.226562 -245.609375 319.46875 -259.359375 C 317.71875 -273.109375 312.160156 -282.757812 302.796875 -288.3125 C 293.441406 -293.875 278.523438 -292.851562 258.046875 -285.25 C 234.640625 -274.132812 213.28125 -259.503906 193.96875 -241.359375 C 174.65625 -223.222656 156.222656 -204.5 138.671875 -185.1875 C 115.265625 -157.6875 92.738281 -129.160156 71.09375 -99.609375 C 49.445312 -70.066406 29.257812 -40.082031 10.53125 -9.65625 C 3.507812 0.289062 -4.972656 4.828125 -14.921875 3.953125 C -24.867188 3.078125 -32.910156 -1.453125 -39.046875 -9.640625 C -45.191406 -17.835938 -45.925781 -27.203125 -41.25 -37.734375 C -7.894531 -107.953125 25.75 -177.582031 59.6875 -246.625 C 93.625 -315.675781 128.726562 -384.140625 165 -452.015625 C 162.070312 -449.671875 159 -447.035156 155.78125 -444.109375 C 152.570312 -441.179688 149.210938 -438.546875 145.703125 -436.203125 C 140.429688 -432.109375 135.453125 -431.234375 130.765625 -433.578125 C 126.085938 -435.921875 123.164062 -439.578125 122 -444.546875 C 120.832031 -449.523438 122.585938 -454.0625 127.265625 -458.15625 C 136.046875 -466.34375 147.457031 -476.429688 161.5 -488.421875 C 175.539062 -500.421875 190.753906 -513.738281 207.140625 -528.375 C 222.347656 -556.457031 238 -584.539062 254.09375 -612.625 C 270.1875 -640.707031 286.71875 -668.5 303.6875 -696 C 321.820312 -722.914062 339.8125 -749.6875 357.65625 -776.3125 C 375.5 -802.9375 397.878906 -826.195312 424.796875 -846.09375 C 437.671875 -855.457031 451.128906 -857.796875 465.171875 -853.109375 C 479.210938 -848.429688 487.988281 -838.191406 491.5 -822.390625 C 493.84375 -807.765625 490.039062 -790.796875 480.09375 -771.484375 C 470.144531 -752.179688 456.6875 -732.140625 439.71875 -711.359375 C 422.75 -690.585938 404.460938 -670.398438 384.859375 -650.796875 C 365.265625 -631.203125 346.6875 -613.210938 329.125 -596.828125 C 311.570312 -580.441406 297.53125 -567.273438 287 -557.328125 C 283.488281 -553.816406 279.976562 -550.597656 276.46875 -547.671875 C 272.957031 -544.742188 269.445312 -541.523438 265.9375 -538.015625 C 248.96875 -506.421875 232.582031 -474.675781 216.78125 -442.78125 C 200.988281 -410.894531 184.898438 -379.15625 168.515625 -347.5625 C 157.984375 -326.5 147.742188 -305.285156 137.796875 -283.921875 C 127.847656 -262.566406 117.609375 -241.066406 107.078125 -219.421875 C 129.898438 -242.828125 153.160156 -263.890625 176.859375 -282.609375 C 200.554688 -301.335938 223.8125 -314.941406 246.625 -323.421875 C 269.445312 -331.910156 290.804688 -332.644531 310.703125 -325.625 C 322.398438 -321.53125 332.195312 -314.066406 340.09375 -303.234375 C 348 -292.410156 352.535156 -281.148438 353.703125 -269.453125 C 354.878906 -255.992188 354.585938 -241.800781 352.828125 -226.875 C 351.078125 -211.957031 348.148438 -196.304688 344.046875 -179.921875 C 380.328125 -195.140625 417.191406 -210.0625 454.640625 -224.6875 Z M 417.78125 -784.65625 C 399.050781 -760.082031 381.347656 -734.921875 364.671875 -709.171875 C 348.003906 -683.421875 332.0625 -657.382812 316.84375 -631.0625 C 339.664062 -654.46875 361.171875 -677.429688 381.359375 -699.953125 C 401.546875 -722.484375 418.070312 -743.691406 430.9375 -763.578125 C 443.8125 -783.472656 451.128906 -800.445312 452.890625 -814.5 C 452.890625 -815.082031 452.597656 -815.375 452.015625 -815.375 C 451.421875 -815.375 450.6875 -815.078125 449.8125 -814.484375 C 448.9375 -813.898438 447.914062 -813.316406 446.75 -812.734375 C 442.0625 -809.222656 437.226562 -804.976562 432.25 -800 C 427.28125 -795.03125 422.457031 -789.914062 417.78125 -784.65625 Z M 285.25 -112.34375 C 287 -117.019531 289.046875 -121.992188 291.390625 -127.265625 C 286.128906 -124.921875 281.007812 -122.578125 276.03125 -120.234375 C 271.0625 -117.898438 265.941406 -115.5625 260.671875 -113.21875 C 246.046875 -106.195312 226.59375 -96.539062 202.3125 -84.25 C 178.03125 -71.96875 152.578125 -57.632812 125.953125 -41.25 C 99.328125 -24.863281 74.601562 -7.457031 51.78125 10.96875 C 28.957031 29.40625 11.550781 48.421875 -0.4375 68.015625 C -12.4375 87.617188 -15.507812 107.078125 -9.65625 126.390625 C -0.875 145.691406 9.65625 157.828125 21.9375 162.796875 C 34.226562 167.773438 47.539062 167.925781 61.875 163.25 C 76.207031 158.570312 90.394531 150.960938 104.4375 140.421875 C 118.488281 129.890625 131.507812 118.476562 143.5 106.1875 C 155.5 93.90625 165.59375 82.789062 173.78125 72.84375 C 196.601562 44.757812 217.375 15.066406 236.09375 -16.234375 C 254.820312 -47.535156 271.207031 -79.570312 285.25 -112.34375 Z M 285.25 -112.34375 "/></g></g></g><g fill="#0872cc" fill-opacity="1"><g transform="translate(1191.915922, 865.454935)"><g><path d="M 454.640625 -224.6875 C 458.148438 -225.851562 461.804688 -225.707031 465.609375 -224.25 C 469.410156 -222.789062 471.898438 -220.007812 473.078125 -215.90625 C 474.828125 -212.394531 474.820312 -208.738281 473.0625 -204.9375 C 471.3125 -201.132812 468.390625 -198.359375 464.296875 -196.609375 C 442.054688 -188.992188 420.113281 -180.941406 398.46875 -172.453125 C 376.820312 -163.972656 355.171875 -155.054688 333.515625 -145.703125 C 322.398438 -115.273438 308.503906 -84.257812 291.828125 -52.65625 C 275.148438 -21.0625 256.570312 9.066406 236.09375 37.734375 C 215.613281 66.410156 194.695312 92.007812 173.34375 114.53125 C 151.988281 137.0625 131.363281 155.054688 111.46875 168.515625 C 100.351562 176.117188 87.769531 182.257812 73.71875 186.9375 C 59.675781 191.625 45.488281 193.378906 31.15625 192.203125 C 16.820312 191.035156 4.097656 185.1875 -7.015625 174.65625 C -23.984375 160.03125 -33.929688 141.742188 -36.859375 119.796875 C -39.785156 97.859375 -35.101562 77.53125 -22.8125 58.8125 C -12.875 41.84375 -0.882812 26.773438 13.15625 13.609375 C 27.207031 0.441406 41.835938 -12.285156 57.046875 -24.578125 C 86.890625 -46.804688 118.191406 -66.988281 150.953125 -85.125 C 183.722656 -103.269531 216.785156 -120.535156 250.140625 -136.921875 C 258.921875 -141.015625 267.84375 -145.253906 276.90625 -149.640625 C 285.976562 -154.035156 294.90625 -158.28125 303.6875 -162.375 C 308.945312 -178.164062 313.332031 -194.835938 316.84375 -212.390625 C 320.351562 -229.953125 321.226562 -245.609375 319.46875 -259.359375 C 317.71875 -273.109375 312.160156 -282.757812 302.796875 -288.3125 C 293.441406 -293.875 278.523438 -292.851562 258.046875 -285.25 C 234.640625 -274.132812 213.28125 -259.503906 193.96875 -241.359375 C 174.65625 -223.222656 156.222656 -204.5 138.671875 -185.1875 C 115.265625 -157.6875 92.738281 -129.160156 71.09375 -99.609375 C 49.445312 -70.066406 29.257812 -40.082031 10.53125 -9.65625 C 3.507812 0.289062 -4.972656 4.828125 -14.921875 3.953125 C -24.867188 3.078125 -32.910156 -1.453125 -39.046875 -9.640625 C -45.191406 -17.835938 -45.925781 -27.203125 -41.25 -37.734375 C -7.894531 -107.953125 25.75 -177.582031 59.6875 -246.625 C 93.625 -315.675781 128.726562 -384.140625 165 -452.015625 C 162.070312 -449.671875 159 -447.035156 155.78125 -444.109375 C 152.570312 -441.179688 149.210938 -438.546875 145.703125 -436.203125 C 140.429688 -432.109375 135.453125 -431.234375 130.765625 -433.578125 C 126.085938 -435.921875 123.164062 -439.578125 122 -444.546875 C 120.832031 -449.523438 122.585938 -454.0625 127.265625 -458.15625 C 136.046875 -466.34375 147.457031 -476.429688 161.5 -488.421875 C 175.539062 -500.421875 190.753906 -513.738281 207.140625 -528.375 C 222.347656 -556.457031 238 -584.539062 254.09375 -612.625 C 270.1875 -640.707031 286.71875 -668.5 303.6875 -696 C 321.820312 -722.914062 339.8125 -749.6875 357.65625 -776.3125 C 375.5 -802.9375 397.878906 -826.195312 424.796875 -846.09375 C 437.671875 -855.457031 451.128906 -857.796875 465.171875 -853.109375 C 479.210938 -848.429688 487.988281 -838.191406 491.5 -822.390625 C 493.84375 -807.765625 490.039062 -790.796875 480.09375 -771.484375 C 470.144531 -752.179688 456.6875 -732.140625 439.71875 -711.359375 C 422.75 -690.585938 404.460938 -670.398438 384.859375 -650.796875 C 365.265625 -631.203125 346.6875 -613.210938 329.125 -596.828125 C 311.570312 -580.441406 297.53125 -567.273438 287 -557.328125 C 283.488281 -553.816406 279.976562 -550.597656 276.46875 -547.671875 C 272.957031 -544.742188 269.445312 -541.523438 265.9375 -538.015625 C 248.96875 -506.421875 232.582031 -474.675781 216.78125 -442.78125 C 200.988281 -410.894531 184.898438 -379.15625 168.515625 -347.5625 C 157.984375 -326.5 147.742188 -305.285156 137.796875 -283.921875 C 127.847656 -262.566406 117.609375 -241.066406 107.078125 -219.421875 C 129.898438 -242.828125 153.160156 -263.890625 176.859375 -282.609375 C 200.554688 -301.335938 223.8125 -314.941406 246.625 -323.421875 C 269.445312 -331.910156 290.804688 -332.644531 310.703125 -325.625 C 322.398438 -321.53125 332.195312 -314.066406 340.09375 -303.234375 C 348 -292.410156 352.535156 -281.148438 353.703125 -269.453125 C 354.878906 -255.992188 354.585938 -241.800781 352.828125 -226.875 C 351.078125 -211.957031 348.148438 -196.304688 344.046875 -179.921875 C 380.328125 -195.140625 417.191406 -210.0625 454.640625 -224.6875 Z M 417.78125 -784.65625 C 399.050781 -760.082031 381.347656 -734.921875 364.671875 -709.171875 C 348.003906 -683.421875 332.0625 -657.382812 316.84375 -631.0625 C 339.664062 -654.46875 361.171875 -677.429688 381.359375 -699.953125 C 401.546875 -722.484375 418.070312 -743.691406 430.9375 -763.578125 C 443.8125 -783.472656 451.128906 -800.445312 452.890625 -814.5 C 452.890625 -815.082031 452.597656 -815.375 452.015625 -815.375 C 451.421875 -815.375 450.6875 -815.078125 449.8125 -814.484375 C 448.9375 -813.898438 447.914062 -813.316406 446.75 -812.734375 C 442.0625 -809.222656 437.226562 -804.976562 432.25 -800 C 427.28125 -795.03125 422.457031 -789.914062 417.78125 -784.65625 Z M 285.25 -112.34375 C 287 -117.019531 289.046875 -121.992188 291.390625 -127.265625 C 286.128906 -124.921875 281.007812 -122.578125 276.03125 -120.234375 C 271.0625 -117.898438 265.941406 -115.5625 260.671875 -113.21875 C 246.046875 -106.195312 226.59375 -96.539062 202.3125 -84.25 C 178.03125 -71.96875 152.578125 -57.632812 125.953125 -41.25 C 99.328125 -24.863281 74.601562 -7.457031 51.78125 10.96875 C 28.957031 29.40625 11.550781 48.421875 -0.4375 68.015625 C -12.4375 87.617188 -15.507812 107.078125 -9.65625 126.390625 C -0.875 145.691406 9.65625 157.828125 21.9375 162.796875 C 34.226562 167.773438 47.539062 167.925781 61.875 163.25 C 76.207031 158.570312 90.394531 150.960938 104.4375 140.421875 C 118.488281 129.890625 131.507812 118.476562 143.5 106.1875 C 155.5 93.90625 165.59375 82.789062 173.78125 72.84375 C 196.601562 44.757812 217.375 15.066406 236.09375 -16.234375 C 254.820312 -47.535156 271.207031 -79.570312 285.25 -112.34375 Z M 285.25 -112.34375 "/></g></g></g><g fill="#0872cc" fill-opacity="1"><g transform="translate(1605.303161, 865.454935)"><g><path d="M 71.09375 -301.046875 C 75.1875 -310.410156 81.035156 -315.820312 88.640625 -317.28125 C 96.253906 -318.75 103.570312 -317.726562 110.59375 -314.21875 C 117.613281 -310.707031 122.582031 -305.289062 125.5 -297.96875 C 128.425781 -290.65625 127.550781 -282.613281 122.875 -273.84375 C 118.78125 -266.226562 112.488281 -254.082031 104 -237.40625 C 95.519531 -220.738281 87.035156 -201.867188 78.546875 -180.796875 C 70.066406 -159.734375 62.898438 -139.109375 57.046875 -118.921875 C 51.191406 -98.734375 48.265625 -80.882812 48.265625 -65.375 C 48.265625 -49.875 53.238281 -39.785156 63.1875 -35.109375 C 71.382812 -32.179688 81.921875 -32.179688 94.796875 -35.109375 C 119.953125 -41.546875 144.085938 -52.804688 167.203125 -68.890625 C 190.316406 -84.984375 212.40625 -101.515625 233.46875 -118.484375 C 254.53125 -136.628906 275.300781 -155.644531 295.78125 -175.53125 C 316.257812 -195.425781 336.15625 -215.90625 355.46875 -236.96875 C 359.5625 -241.65625 364.09375 -243.265625 369.0625 -241.796875 C 374.039062 -240.335938 377.695312 -237.265625 380.03125 -232.578125 C 382.375 -227.898438 381.5 -222.929688 377.40625 -217.671875 C 363.945312 -202.453125 347.707031 -184.164062 328.6875 -162.8125 C 309.675781 -141.457031 288.757812 -119.953125 265.9375 -98.296875 C 243.113281 -76.648438 219.414062 -56.753906 194.84375 -38.609375 C 170.269531 -20.472656 145.695312 -6.875 121.125 2.1875 C 96.550781 11.257812 73.144531 13.457031 50.90625 8.78125 C 28.664062 1.757812 14.035156 -11.109375 7.015625 -29.828125 C -0.00390625 -48.554688 -2.050781 -70.5 0.875 -95.65625 C 3.800781 -120.820312 9.648438 -146.570312 18.421875 -172.90625 C 27.203125 -199.238281 36.566406 -223.8125 46.515625 -246.625 C 56.460938 -269.445312 64.65625 -287.585938 71.09375 -301.046875 Z M 143.0625 -383.546875 C 137.789062 -383.546875 133.253906 -385.445312 129.453125 -389.25 C 125.648438 -393.050781 123.75 -397.585938 123.75 -402.859375 C 123.75 -408.117188 125.648438 -412.503906 129.453125 -416.015625 C 133.253906 -419.535156 137.789062 -421.296875 143.0625 -421.296875 C 148.332031 -421.296875 152.867188 -419.535156 156.671875 -416.015625 C 160.472656 -412.503906 162.375 -408.117188 162.375 -402.859375 C 162.375 -397.585938 160.472656 -393.050781 156.671875 -389.25 C 152.867188 -385.445312 148.332031 -383.546875 143.0625 -383.546875 Z M 143.0625 -383.546875 "/></g></g></g><g fill="#0872cc" fill-opacity="1"><g transform="translate(1908.102777, 865.454935)"><g><path d="M 562.59375 -473.953125 C 553.820312 -478.628906 533.488281 -481.988281 501.59375 -484.03125 C 469.707031 -486.082031 429.1875 -486.816406 380.03125 -486.234375 C 330.882812 -485.648438 275.882812 -483.894531 215.03125 -480.96875 C 162.375 -368.039062 110.738281 -254.671875 60.125 -140.859375 C 9.507812 -27.054688 -39.203125 87.476562 -86.015625 202.75 C -95.960938 226.738281 -105.46875 250.726562 -114.53125 274.71875 C -123.601562 298.707031 -132.53125 322.988281 -141.3125 347.5625 C -147.75 368.039062 -154.332031 388.664062 -161.0625 409.4375 C -167.789062 430.207031 -171.738281 451.421875 -172.90625 473.078125 C -172.90625 473.078125 -172.90625 473.660156 -172.90625 474.828125 C -167.050781 476.585938 -163.832031 480.679688 -163.25 487.109375 C -163.25 494.140625 -166.46875 498.820312 -172.90625 501.15625 C -179.34375 503.5 -185.191406 502.914062 -190.453125 499.40625 C -198.648438 494.132812 -202.75 486.960938 -202.75 477.890625 C -202.75 468.828125 -202.457031 460.492188 -201.875 452.890625 C -194.257812 407.242188 -182.695312 362.769531 -167.1875 319.46875 C -151.6875 276.175781 -136.039062 232.878906 -120.25 189.578125 C -77.53125 76.648438 -33.0625 -35.394531 13.15625 -146.5625 C 59.382812 -257.738281 106.78125 -368.332031 155.34375 -478.34375 C 83.957031 -474.832031 8.476562 -470.296875 -71.09375 -464.734375 C -150.664062 -459.171875 -229.953125 -452.878906 -308.953125 -445.859375 C -309.535156 -445.859375 -309.828125 -445.859375 -309.828125 -445.859375 C -319.179688 -445.859375 -324.15625 -450.25 -324.75 -459.03125 C -325.332031 -463.125 -324.304688 -466.78125 -321.671875 -470 C -319.035156 -473.21875 -315.671875 -474.828125 -311.578125 -474.828125 C -310.992188 -474.828125 -298.410156 -475.847656 -273.828125 -477.890625 C -249.253906 -479.941406 -216.488281 -482.578125 -175.53125 -485.796875 C -134.570312 -489.015625 -88.492188 -492.378906 -37.296875 -495.890625 C 13.898438 -499.398438 66.414062 -502.910156 120.25 -506.421875 C 128.4375 -506.421875 136.476562 -506.710938 144.375 -507.296875 C 152.28125 -507.890625 160.035156 -508.1875 167.640625 -508.1875 C 192.210938 -563.769531 216.492188 -618.476562 240.484375 -672.3125 C 244.578125 -681.082031 250.28125 -686.492188 257.59375 -688.546875 C 264.914062 -690.597656 272.085938 -690.015625 279.109375 -686.796875 C 286.128906 -683.578125 291.25 -678.601562 294.46875 -671.875 C 297.6875 -665.144531 297.242188 -657.097656 293.140625 -647.734375 C 282.609375 -624.910156 271.929688 -602.234375 261.109375 -579.703125 C 250.285156 -557.179688 239.609375 -534.507812 229.078125 -511.6875 C 296.953125 -514.03125 352.679688 -515.203125 396.265625 -515.203125 C 439.859375 -515.203125 474.378906 -514.320312 499.828125 -512.5625 C 525.285156 -510.8125 544.304688 -508.472656 556.890625 -505.546875 C 569.472656 -502.617188 577.8125 -499.546875 581.90625 -496.328125 C 586 -493.109375 588.925781 -490.332031 590.6875 -488 C 595.363281 -479.800781 595.070312 -471.609375 589.8125 -463.421875 C 588.050781 -460.492188 585.125 -458.441406 581.03125 -457.265625 C 576.9375 -456.097656 573.132812 -456.6875 569.625 -459.03125 C 564.351562 -462.539062 562.007812 -467.515625 562.59375 -473.953125 Z M -179.046875 473.953125 C -179.628906 473.953125 -178.753906 473.953125 -176.421875 473.953125 C -177.585938 473.367188 -178.460938 473.367188 -179.046875 473.953125 Z M -179.046875 473.953125 "/></g></g></g></g></g></svg>